<mxfile host="app.diagrams.net" agent="Mozilla/5.0 (Windows NT 10.0; Win64; x64) AppleWebKit/537.36 (KHTML, like Gecko) Chrome/133.0.0.0 Safari/537.36" version="26.1.0">
  <diagram name="第 1 页" id="E0PM-yl6_ufhHg5yy3cr">
    <mxGraphModel dx="600" dy="298" grid="1" gridSize="10" guides="1" tooltips="1" connect="1" arrows="1" fold="1" page="1" pageScale="1" pageWidth="827" pageHeight="1169" math="0" shadow="0">
      <root>
        <mxCell id="0" />
        <mxCell id="1" parent="0" />
        <mxCell id="JGrEILPJ_6yCm0HMOT1h-3" style="edgeStyle=orthogonalEdgeStyle;rounded=0;orthogonalLoop=1;jettySize=auto;html=1;" edge="1" parent="1" source="JGrEILPJ_6yCm0HMOT1h-1" target="JGrEILPJ_6yCm0HMOT1h-2">
          <mxGeometry relative="1" as="geometry" />
        </mxCell>
        <mxCell id="JGrEILPJ_6yCm0HMOT1h-1" value="获取url,key,model" style="rounded=0;whiteSpace=wrap;html=1;" vertex="1" parent="1">
          <mxGeometry x="20" y="130" width="120" height="60" as="geometry" />
        </mxCell>
        <mxCell id="JGrEILPJ_6yCm0HMOT1h-5" style="edgeStyle=orthogonalEdgeStyle;rounded=0;orthogonalLoop=1;jettySize=auto;html=1;" edge="1" parent="1" source="JGrEILPJ_6yCm0HMOT1h-2" target="JGrEILPJ_6yCm0HMOT1h-4">
          <mxGeometry relative="1" as="geometry" />
        </mxCell>
        <mxCell id="JGrEILPJ_6yCm0HMOT1h-2" value="放配置文件" style="rounded=0;whiteSpace=wrap;html=1;" vertex="1" parent="1">
          <mxGeometry x="190" y="130" width="120" height="60" as="geometry" />
        </mxCell>
        <mxCell id="JGrEILPJ_6yCm0HMOT1h-4" value="启动AI服务器自定义接口.py" style="rounded=0;whiteSpace=wrap;html=1;" vertex="1" parent="1">
          <mxGeometry x="350" y="130" width="120" height="60" as="geometry" />
        </mxCell>
        <mxCell id="JGrEILPJ_6yCm0HMOT1h-6" value="使用流程" style="text;html=1;align=center;verticalAlign=middle;whiteSpace=wrap;rounded=0;" vertex="1" parent="1">
          <mxGeometry x="20" y="90" width="60" height="30" as="geometry" />
        </mxCell>
      </root>
    </mxGraphModel>
  </diagram>
</mxfile>
